<?xml version="1.0" encoding="UTF-8"?>
<svg id="Layer_2" data-name="Layer 2" xmlns="http://www.w3.org/2000/svg" viewBox="0 0 476.16 168.78">
  <defs>
    <style>
      .cls-1 {
        fill: #fff;
      }

      .cls-2 {
        fill: #fbb03b;
      }

      .cls-3 {
        fill: #333;
      }
    </style>
  </defs>
  <g id="Layer_1-2" data-name="Layer 1">
    <g>
      <path class="cls-2" d="M45.54,47.78C20.39,47.78,0,68.17,0,93.32s20.39,45.54,45.54,45.54,45.54-20.39,45.54-45.54-20.39-45.54-45.54-45.54h0ZM45.54,126.78c-18.5,0-33.5-15-33.5-33.5s15-33.5,33.5-33.5,33.5,15,33.5,33.5c.04,18.5-14.93,33.53-33.43,33.57-.02,0-.05,0-.07,0v-.07Z"/>
      <path class="cls-2" d="M1.39,22.16h9.26c.77,0,1.39.62,1.39,1.39v68.23H.04V23.55c0-.77.62-1.39,1.39-1.39h-.04Z"/>
      <path class="cls-2" d="M139.24,47.78c-25.15-.01-45.55,20.37-45.56,45.52s20.37,45.55,45.52,45.56c25.15.01,45.54-20.36,45.56-45.51.02-25.15-20.36-45.55-45.51-45.57,0,0,0,0-.01,0ZM139.24,126.78c-18.5-.01-33.49-15.02-33.48-33.52.01-18.5,15.02-33.49,33.52-33.48,18.5.01,33.49,15.02,33.48,33.52,0,.02,0,.03,0,.05,0,18.5-15,33.5-33.5,33.5h-.02v-.07Z"/>
      <path class="cls-2" d="M174.13,22.16h9.26c.76.01,1.37.63,1.37,1.39v68.23h-12V23.55c0-.77.62-1.39,1.39-1.39h-.02Z"/>
      <path class="cls-3" d="M121.56,141.45c-1.84-.01-3.57.89-4.61,2.4-9.73,14.29-29.2,17.98-43.49,8.25-3.24-2.21-6.04-5.01-8.25-8.25-1.05-1.51-2.77-2.41-4.61-2.4h0c-3.11,0-5.63,2.52-5.63,5.63,0,1.14.35,2.25.99,3.19,13.29,19.4,39.78,24.35,59.18,11.06,4.34-2.97,8.09-6.72,11.06-11.06,1.76-2.56,1.11-6.07-1.45-7.83-.94-.65-2.05-.99-3.19-.99Z"/>
      <g>
        <path class="cls-2" d="M196.07,53.05c0-3.57,2.84-6.09,6.75-6.09s6.75,2.52,6.75,6.09-2.84,6.09-6.75,6.09-6.75-2.55-6.75-6.09Z"/>
        <rect x="196.97" y="64.9" width="11.65" height="39.34"/>
        <path d="M216.44,110.98c0-3.26,1.96-5.9,5.58-7.92v-.32c-2.03-1.37-3.59-3.43-3.59-6.68,0-2.84,1.88-5.61,4.38-7.37v-.32c-2.77-1.93-5.28-5.61-5.28-10.2,0-9.44,7.8-14.23,16.27-14.23,2.19,0,4.33.35,6.09.95h14.38v8.49h-6.32c.74,1.17,1.33,3.12,1.33,5.18,0,9.05-6.88,13.22-15.48,13.22-1.44,0-3.06-.24-4.8-.76-.96.84-1.37,1.54-1.37,2.93,0,1.94,1.59,2.88,5.89,2.88h6.38c9.65,0,15.02,2.96,15.02,10,0,8.17-8.52,14.12-22.02,14.12-9.15,0-16.45-2.98-16.45-9.97ZM243.75,108.82c0-2.48-2.13-3.05-6-3.05h-4.08c-2.7,0-4.24-.16-5.51-.5-1.45,1.23-2.13,2.44-2.13,3.86,0,2.98,3.45,4.51,8.72,4.51s9-2.1,9-4.82ZM239.17,78.18c0-4.19-2.27-6.4-5.37-6.4s-5.37,2.19-5.37,6.4,2.3,6.55,5.37,6.55,5.37-2.25,5.37-6.55Z"/>
        <path class="cls-2" d="M260.29,53.05c0-3.57,2.84-6.09,6.75-6.09s6.75,2.52,6.75,6.09-2.84,6.09-6.75,6.09-6.75-2.55-6.75-6.09Z"/>
        <rect x="261.19" y="64.9" width="11.65" height="39.34"/>
        <path d="M284.65,89.93v-15.89h-5.37v-8.7l6.03-.45,1.36-10.45h9.64v10.45h9.43v9.14h-9.43v15.75c0,4.46,2.02,6.25,5.09,6.25,1.3,0,2.7-.37,3.74-.75l1.84,8.46c-2.09.66-4.92,1.43-8.74,1.43-9.72,0-13.58-6.14-13.58-15.25Z"/>
        <path d="M310.04,93.32c0-8.29,6.59-12.77,22.15-14.42-.23-3.44-1.95-5.69-6.22-5.69-3.3,0-6.59,1.39-10.41,3.55l-4.14-7.65c4.99-3.05,10.62-5.18,16.8-5.18,10.05,0,15.62,5.75,15.62,17.8v22.49h-9.51l-.84-4.03h-.29c-3.31,2.91-7.02,4.98-11.45,4.98-7.17,0-11.72-5.23-11.72-11.86ZM332.2,92.8v-6.87c-8.29,1.12-10.99,3.49-10.99,6.46,0,2.54,1.74,3.78,4.51,3.78s4.41-1.31,6.48-3.37Z"/>
        <path d="M353.63,92.01v-43.32h11.66v43.8c0,2.5,1.16,3.29,2.11,3.29.45,0,.77,0,1.43-.16l1.39,8.59c-1.29.55-3.2.97-5.85.97-8,0-10.73-5.22-10.73-13.17Z"/>
      </g>
      <path class="cls-2" d="M382.69,0h81c6.88,0,12.47,5.59,12.47,12.47v19.37c0,6.88-5.59,12.47-12.47,12.47h-93.47V12.47c0-6.88,5.59-12.47,12.47-12.47Z"/>
      <g>
        <path class="cls-1" d="M398.03,16.42h-5.18v-2.68h13.53v2.68h-5.18v15.26h-3.18v-15.26Z"/>
        <path class="cls-1" d="M406.27,24.96c0-4.49,3.05-7.07,6.41-7.07s6.41,2.59,6.41,7.07-3.05,7.05-6.41,7.05-6.41-2.59-6.41-7.05ZM415.84,24.96c0-2.7-1.18-4.5-3.16-4.5s-3.16,1.8-3.16,4.5,1.18,4.48,3.16,4.48,3.16-1.78,3.16-4.48Z"/>
        <path class="cls-1" d="M421.32,24.96c0-4.49,3.05-7.07,6.41-7.07s6.41,2.59,6.41,7.07-3.05,7.05-6.41,7.05-6.41-2.59-6.41-7.05ZM430.89,24.96c0-2.7-1.18-4.5-3.16-4.5s-3.16,1.8-3.16,4.5,1.18,4.48,3.16,4.48,3.16-1.78,3.16-4.48Z"/>
        <path class="cls-1" d="M437.1,28.22v-15.9h3.16v16.07c0,.78.35,1.05.68,1.05.14,0,.25,0,.49-.05l.4,2.36c-.38.15-.91.27-1.67.27-2.24,0-3.06-1.45-3.06-3.79Z"/>
        <path class="cls-1" d="M443.19,30.13l1.47-2.01c1.2.93,2.35,1.5,3.72,1.5,1.47,0,2.16-.69,2.16-1.61,0-1.13-1.46-1.63-2.9-2.18-1.77-.66-3.78-1.68-3.78-3.93s1.89-4.03,4.9-4.03c1.88,0,3.38.76,4.48,1.61l-1.45,1.94c-.94-.69-1.89-1.17-2.95-1.17-1.35,0-2,.65-2,1.49,0,1.06,1.36,1.47,2.82,2.01,1.82.68,3.86,1.56,3.86,4.07,0,2.31-1.83,4.18-5.23,4.18-1.84,0-3.78-.79-5.1-1.88Z"/>
      </g>
    </g>
  </g>
</svg>